<svg width="400" height="120" viewBox="0 0 400 120" fill="none" xmlns="http://www.w3.org/2000/svg">
<rect x="0.5" y="0.5" width="399" height="119" fill="#1E1D2C"/>
<rect x="0.5" y="0.5" width="399" height="119" stroke="white"/>
<path d="M104.66 90V82.3H108.488C110.699 82.3 111.964 83.455 111.964 84.951C111.964 86.447 110.699 87.591 108.488 87.591H106.662V90H104.66ZM108.807 85.809C109.467 85.809 109.808 85.325 109.808 84.951C109.808 84.577 109.467 84.082 108.807 84.082H106.662V85.809H108.807ZM112.856 90V82.3H116.684C118.895 82.3 120.16 83.455 120.16 84.951C120.16 85.952 119.588 86.799 118.543 87.25L120.116 90H117.828L116.442 87.591H114.858V90H112.856ZM117.003 85.809C117.663 85.809 118.004 85.325 118.004 84.951C118.004 84.577 117.663 84.082 117.003 84.082H114.858V85.809H117.003ZM121.16 82.3H127.848V84.082H123.162V85.27H127.232V87.041H123.162V88.229H127.848V90H121.16V82.3ZM132.358 82.135C134.195 82.135 135.702 82.949 136.087 84.214L134.008 84.83C133.865 84.324 133.425 83.906 132.358 83.906C131.577 83.906 130.961 84.049 130.961 84.555C130.961 86.029 136.263 84.159 136.263 87.657C136.263 89.186 134.778 90.176 132.435 90.176C130.587 90.176 128.981 89.362 128.596 88.097L130.664 87.481C130.818 87.987 131.379 88.405 132.435 88.405C133.48 88.405 134.096 88.064 134.096 87.657C134.096 86.326 128.849 88.097 128.849 84.654C128.849 83.026 130.257 82.135 132.358 82.135ZM140.672 82.135C142.509 82.135 144.016 82.949 144.401 84.214L142.322 84.83C142.179 84.324 141.739 83.906 140.672 83.906C139.891 83.906 139.275 84.049 139.275 84.555C139.275 86.029 144.577 84.159 144.577 87.657C144.577 89.186 143.092 90.176 140.749 90.176C138.901 90.176 137.295 89.362 136.91 88.097L138.978 87.481C139.132 87.987 139.693 88.405 140.749 88.405C141.794 88.405 142.41 88.064 142.41 87.657C142.41 86.326 137.163 88.097 137.163 84.654C137.163 83.026 138.571 82.135 140.672 82.135Z" fill="white"/>
<path d="M238.634 82.3V84.082H235.873V90.011H233.86V84.082H231.11V82.3H238.634ZM243.112 90.176C240.67 90.176 239.097 88.592 239.097 86.161C239.097 83.719 240.67 82.135 243.112 82.135C245.554 82.135 247.138 83.719 247.138 86.161C247.138 88.592 245.554 90.176 243.112 90.176ZM241.253 86.161C241.253 87.525 241.979 88.405 243.112 88.405C244.245 88.405 244.971 87.525 244.971 86.161C244.971 84.786 244.245 83.906 243.112 83.906C241.979 83.906 241.253 84.786 241.253 86.161ZM252.435 82.3H259.123V84.082H254.437V85.27H258.507V87.041H254.437V88.229H259.123V90H252.435V82.3ZM267.879 90H265.415L263.721 87.745L262.093 90H259.64L262.467 86.084L259.64 82.3H262.093L263.787 84.566L265.415 82.3H267.879L265.03 86.216L267.879 90ZM268.602 82.3H270.604V90H268.602V82.3ZM278.906 82.3V84.082H276.145V90.011H274.132V84.082H271.382V82.3H278.906Z" fill="white"/>
<rect x="154.5" y="77.5" width="67" height="19" rx="4.5" stroke="white"/>
<path d="M165.66 82.3H172.348V84.082H167.662V85.27H171.732V87.041H167.662V88.229H172.348V90H165.66V82.3ZM176.858 82.135C178.695 82.135 180.202 82.949 180.587 84.214L178.508 84.83C178.365 84.324 177.925 83.906 176.858 83.906C176.077 83.906 175.461 84.049 175.461 84.555C175.461 86.029 180.763 84.159 180.763 87.657C180.763 89.186 179.278 90.176 176.935 90.176C175.087 90.176 173.481 89.362 173.096 88.097L175.164 87.481C175.318 87.987 175.879 88.405 176.935 88.405C177.98 88.405 178.596 88.064 178.596 87.657C178.596 86.326 173.349 88.097 173.349 84.654C173.349 83.026 174.757 82.135 176.858 82.135ZM181.487 86.15C181.487 83.598 182.95 82.135 185.502 82.135C187.504 82.135 188.824 83.026 189.319 84.632L187.251 85.259C186.987 84.401 186.349 83.906 185.502 83.906C184.314 83.906 183.643 84.72 183.643 86.15C183.643 87.591 184.314 88.405 185.502 88.405C186.349 88.405 186.987 87.91 187.251 87.052L189.319 87.679C188.824 89.285 187.504 90.176 185.502 90.176C182.95 90.176 181.487 88.713 181.487 86.15ZM195.377 82.3L197.962 90H195.839L195.278 88.328H192.253L191.681 90H189.569L192.143 82.3H195.377ZM192.836 86.546H194.684L193.859 84.082H193.661L192.836 86.546ZM198.692 90V82.3H202.52C204.731 82.3 205.996 83.455 205.996 84.951C205.996 86.447 204.731 87.591 202.52 87.591H200.694V90H198.692ZM202.839 85.809C203.499 85.809 203.84 85.325 203.84 84.951C203.84 84.577 203.499 84.082 202.839 84.082H200.694V85.809H202.839ZM206.889 82.3H213.577V84.082H208.891V85.27H212.961V87.041H208.891V88.229H213.577V90H206.889V82.3Z" fill="white"/>
<path d="M90.16 26.8H112.048V32.632H96.712V36.52H110.032V42.316H96.712V46.204H112.048V52H90.16V26.8ZM140.703 52H132.639L127.095 44.62L121.767 52H113.739L122.991 39.184L113.739 26.8H121.767L127.311 34.216L132.639 26.8H140.703L131.379 39.616L140.703 52ZM143.07 26.8H149.622V52H143.07V26.8ZM176.793 26.8V32.632H167.757V52.036H161.169V32.632H152.169V26.8H176.793ZM192.407 39.4C192.407 31.048 197.195 26.26 205.547 26.26C212.099 26.26 216.419 29.176 218.039 34.432L211.271 36.484C210.407 33.676 208.319 32.056 205.547 32.056C201.659 32.056 199.463 34.72 199.463 39.4C199.463 44.116 201.659 46.78 205.547 46.78C208.715 46.78 210.659 45.16 211.091 42.28H204.755V38.284H218.039V52H214.043V49.588C212.099 51.604 209.111 52.576 205.547 52.576C197.195 52.576 192.407 47.788 192.407 39.4ZM238.954 26.8L247.414 52H240.466L238.63 46.528H228.73L226.858 52H219.946L228.37 26.8H238.954ZM230.638 40.696H236.686L233.986 32.632H233.338L230.638 40.696ZM249.805 26.8H258.841L263.557 42.1L268.237 26.8H277.309V52H270.721V38.572L266.581 52H260.497L256.357 38.572V52H249.805V26.8ZM281.656 26.8H303.544V32.632H288.208V36.52H301.528V42.316H288.208V46.204H303.544V52H281.656V26.8Z" fill="white"/>
</svg>
