<svg width="232" height="140" viewBox="0 0 232 140" fill="none" xmlns="http://www.w3.org/2000/svg">
<path d="M2.04 2.2H22.712V7.708H8.228V13.046H20.808V18.554H8.228V26H2.04V2.2ZM25.581 26V2.2H31.769V20.526H45.913V26H25.581ZM59.7492 26.544C52.2012 26.544 47.3392 21.648 47.3392 14.134C47.3392 6.586 52.2012 1.69 59.7492 1.69C67.2972 1.69 72.1932 6.586 72.1932 14.134C72.1932 21.648 67.2972 26.544 59.7492 26.544ZM54.0032 14.134C54.0032 18.35 56.2472 21.07 59.7492 21.07C63.2512 21.07 65.4952 18.35 65.4952 14.134C65.4952 9.884 63.2512 7.164 59.7492 7.164C56.2472 7.164 54.0032 9.884 54.0032 14.134ZM86.7433 26.544C79.1953 26.544 74.3333 21.648 74.3333 14.134C74.3333 6.586 79.1953 1.69 86.7433 1.69C94.2913 1.69 99.1873 6.586 99.1873 14.134C99.1873 21.648 94.2913 26.544 86.7433 26.544ZM80.9973 14.134C80.9973 18.35 83.2413 21.07 86.7433 21.07C90.2453 21.07 92.4893 18.35 92.4893 14.134C92.4893 9.884 90.2453 7.164 86.7433 7.164C83.2413 7.164 80.9973 9.884 80.9973 14.134ZM102.313 26V2.2H114.145C120.979 2.2 124.889 5.77 124.889 10.394C124.889 13.488 123.121 16.106 119.891 17.5L124.753 26H117.681L113.397 18.554H108.501V26H102.313ZM115.131 13.046C117.171 13.046 118.225 11.55 118.225 10.394C118.225 9.238 117.171 7.708 115.131 7.708H108.501V13.046H115.131Z" fill="white"/>
<path d="M0 47H232" stroke="white"/>
<path d="M42.0834 81V62.8H51.1314C56.3574 62.8 59.3474 65.53 59.3474 69.066C59.3474 72.602 56.3574 75.306 51.1314 75.306H46.8154V81H42.0834ZM51.8854 71.094C53.4454 71.094 54.2514 69.95 54.2514 69.066C54.2514 68.182 53.4454 67.012 51.8854 67.012H46.8154V71.094H51.8854ZM70.1925 81.416C64.4205 81.416 60.7025 77.672 60.7025 71.926C60.7025 66.154 64.4205 62.41 70.1925 62.41C75.9645 62.41 79.7085 66.154 79.7085 71.926C79.7085 77.672 75.9645 81.416 70.1925 81.416ZM65.7985 71.926C65.7985 75.15 67.5145 77.23 70.1925 77.23C72.8705 77.23 74.5865 75.15 74.5865 71.926C74.5865 68.676 72.8705 66.596 70.1925 66.596C67.5145 66.596 65.7985 68.676 65.7985 71.926ZM82.0991 62.8H86.8311V81H82.0991V62.8ZM89.9702 62.8H94.7022L101.8 73.434V62.8H106.532V81H101.8L94.7022 70.392V81H89.9702V62.8ZM126.157 62.8V67.012H119.631V81.026H114.873V67.012H108.373V62.8H126.157ZM136.013 62.41C140.355 62.41 143.917 64.334 144.827 67.324L139.913 68.78C139.575 67.584 138.535 66.596 136.013 66.596C134.167 66.596 132.711 66.934 132.711 68.13C132.711 71.614 145.243 67.194 145.243 75.462C145.243 79.076 141.733 81.416 136.195 81.416C131.827 81.416 128.031 79.492 127.121 76.502L132.009 75.046C132.373 76.242 133.699 77.23 136.195 77.23C138.665 77.23 140.121 76.424 140.121 75.462C140.121 72.316 127.719 76.502 127.719 68.364C127.719 64.516 131.047 62.41 136.013 62.41Z" fill="white"/>
<path d="M42.0834 101.8H48.6094L52.0154 112.85L55.3954 101.8H61.9474V120H57.1894V110.302L54.1994 120H49.8054L46.8154 110.302V120H42.0834V101.8ZM73.8233 120.416C68.0513 120.416 64.3333 116.672 64.3333 110.926C64.3333 105.154 68.0513 101.41 73.8233 101.41C79.5953 101.41 83.3393 105.154 83.3393 110.926C83.3393 116.672 79.5953 120.416 73.8233 120.416ZM69.4293 110.926C69.4293 114.15 71.1453 116.23 73.8233 116.23C76.5013 116.23 78.2173 114.15 78.2173 110.926C78.2173 107.676 76.5013 105.596 73.8233 105.596C71.1453 105.596 69.4293 107.676 69.4293 110.926ZM83.6905 101.8H88.6825L93.3625 115.814H93.7265L98.4065 101.8H103.425L97.3405 120H89.7745L83.6905 101.8ZM105.128 101.8H120.936V106.012H109.86V108.82H119.48V113.006H109.86V115.814H120.936V120H105.128V101.8ZM131.595 101.41C135.937 101.41 139.499 103.334 140.409 106.324L135.495 107.78C135.157 106.584 134.117 105.596 131.595 105.596C129.749 105.596 128.293 105.934 128.293 107.13C128.293 110.614 140.825 106.194 140.825 114.462C140.825 118.076 137.315 120.416 131.777 120.416C127.409 120.416 123.613 118.492 122.703 115.502L127.591 114.046C127.955 115.242 129.281 116.23 131.777 116.23C134.247 116.23 135.703 115.424 135.703 114.462C135.703 111.316 123.301 115.502 123.301 107.364C123.301 103.516 126.629 101.41 131.595 101.41Z" fill="white"/>
</svg>
