<svg width="232" height="120" viewBox="0 0 232 120" fill="none" xmlns="http://www.w3.org/2000/svg">
<rect x="0.5" y="0.5" width="231" height="119" rx="1.5" stroke="white"/>
<rect x="32.5" y="19.5" width="67" height="19" rx="4.5" stroke="white"/>
<path d="M50.048 24.135C51.885 24.135 53.392 24.949 53.777 26.214L51.698 26.83C51.555 26.324 51.115 25.906 50.048 25.906C49.267 25.906 48.651 26.049 48.651 26.555C48.651 28.029 53.953 26.159 53.953 29.657C53.953 31.186 52.468 32.176 50.125 32.176C48.277 32.176 46.671 31.362 46.286 30.097L48.354 29.481C48.508 29.987 49.069 30.405 50.125 30.405C51.17 30.405 51.786 30.064 51.786 29.657C51.786 28.326 46.539 30.097 46.539 26.654C46.539 25.026 47.947 24.135 50.048 24.135ZM54.9745 32V24.3H58.8025C61.0135 24.3 62.2785 25.455 62.2785 26.951C62.2785 28.447 61.0135 29.591 58.8025 29.591H56.9765V32H54.9745ZM59.1215 27.809C59.7815 27.809 60.1225 27.325 60.1225 26.951C60.1225 26.577 59.7815 26.082 59.1215 26.082H56.9765V27.809H59.1215ZM67.697 24.3L70.282 32H68.159L67.598 30.328H64.573L64.001 32H61.889L64.463 24.3H67.697ZM65.156 28.546H67.004L66.179 26.082H65.981L65.156 28.546ZM70.4577 28.15C70.4577 25.598 71.9207 24.135 74.4727 24.135C76.4747 24.135 77.7947 25.026 78.2897 26.632L76.2217 27.259C75.9577 26.401 75.3197 25.906 74.4727 25.906C73.2847 25.906 72.6137 26.72 72.6137 28.15C72.6137 29.591 73.2847 30.405 74.4727 30.405C75.3197 30.405 75.9577 29.91 76.2217 29.052L78.2897 29.679C77.7947 31.285 76.4747 32.176 74.4727 32.176C71.9207 32.176 70.4577 30.713 70.4577 28.15ZM79.2196 24.3H85.9076V26.082H81.2216V27.27H85.2916V29.041H81.2216V30.229H85.9076V32H79.2196V24.3Z" fill="white"/>
<path d="M110.66 32V24.3H114.488C116.699 24.3 117.964 25.455 117.964 26.951C117.964 28.447 116.699 29.591 114.488 29.591H112.662V32H110.66ZM114.807 27.809C115.467 27.809 115.808 27.325 115.808 26.951C115.808 26.577 115.467 26.082 114.807 26.082H112.662V27.809H114.807ZM123.383 24.3L125.968 32H123.845L123.284 30.328H120.259L119.687 32H117.575L120.149 24.3H123.383ZM120.842 28.546H122.69L121.865 26.082H121.667L120.842 28.546ZM126.255 24.3H128.257V28.48C128.257 29.69 128.851 30.405 129.797 30.405C130.754 30.405 131.337 29.69 131.337 28.48V24.3H133.35V28.48C133.35 30.834 132.03 32.176 129.797 32.176C127.564 32.176 126.255 30.834 126.255 28.48V24.3ZM137.939 24.135C139.776 24.135 141.283 24.949 141.668 26.214L139.589 26.83C139.446 26.324 139.006 25.906 137.939 25.906C137.158 25.906 136.542 26.049 136.542 26.555C136.542 28.029 141.844 26.159 141.844 29.657C141.844 31.186 140.359 32.176 138.016 32.176C136.168 32.176 134.562 31.362 134.177 30.097L136.245 29.481C136.399 29.987 136.96 30.405 138.016 30.405C139.061 30.405 139.677 30.064 139.677 29.657C139.677 28.326 134.43 30.097 134.43 26.654C134.43 25.026 135.838 24.135 137.939 24.135ZM142.865 24.3H149.553V26.082H144.867V27.27H148.937V29.041H144.867V30.229H149.553V32H142.865V24.3Z" fill="white"/>
<rect x="32.5" y="49.5" width="67" height="19" rx="4.5" stroke="white"/>
<path d="M41.66 54.3H48.348V56.082H43.662V57.27H47.732V59.041H43.662V60.229H48.348V62H41.66V54.3ZM52.8576 54.135C54.6946 54.135 56.2016 54.949 56.5866 56.214L54.5076 56.83C54.3646 56.324 53.9246 55.906 52.8576 55.906C52.0766 55.906 51.4606 56.049 51.4606 56.555C51.4606 58.029 56.7626 56.159 56.7626 59.657C56.7626 61.186 55.2776 62.176 52.9346 62.176C51.0866 62.176 49.4806 61.362 49.0956 60.097L51.1636 59.481C51.3176 59.987 51.8786 60.405 52.9346 60.405C53.9796 60.405 54.5956 60.064 54.5956 59.657C54.5956 58.326 49.3486 60.097 49.3486 56.654C49.3486 55.026 50.7566 54.135 52.8576 54.135ZM57.487 58.15C57.487 55.598 58.95 54.135 61.502 54.135C63.504 54.135 64.824 55.026 65.319 56.632L63.251 57.259C62.987 56.401 62.349 55.906 61.502 55.906C60.314 55.906 59.643 56.72 59.643 58.15C59.643 59.591 60.314 60.405 61.502 60.405C62.349 60.405 62.987 59.91 63.251 59.052L65.319 59.679C64.824 61.285 63.504 62.176 61.502 62.176C58.95 62.176 57.487 60.713 57.487 58.15ZM71.3767 54.3L73.9617 62H71.8387L71.2777 60.328H68.2527L67.6807 62H65.5687L68.1427 54.3H71.3767ZM68.8357 58.546H70.6837L69.8587 56.082H69.6607L68.8357 58.546ZM74.6922 62V54.3H78.5202C80.7312 54.3 81.9962 55.455 81.9962 56.951C81.9962 58.447 80.7312 59.591 78.5202 59.591H76.6942V62H74.6922ZM78.8392 57.809C79.4992 57.809 79.8402 57.325 79.8402 56.951C79.8402 56.577 79.4992 56.082 78.8392 56.082H76.6942V57.809H78.8392ZM82.8885 54.3H89.5765V56.082H84.8905V57.27H88.9605V59.041H84.8905V60.229H89.5765V62H82.8885V54.3Z" fill="white"/>
<rect x="64.5" y="79.5" width="35" height="19" rx="4.5" stroke="white"/>
<path d="M77.634 84.3V86.082H74.873V92.011H72.86V86.082H70.11V84.3H77.634ZM82.5984 84.3L85.1834 92H83.0604L82.4994 90.328H79.4744L78.9024 92H76.7904L79.3644 84.3H82.5984ZM80.0574 88.546H81.9054L81.0804 86.082H80.8824L80.0574 88.546ZM93.0089 86.555C93.0089 87.303 92.5689 87.776 91.9199 88.051C92.6899 88.326 93.2179 88.832 93.2179 89.69C93.2179 91.219 91.9529 92 89.7419 92H85.9139V84.3H89.5219C91.7329 84.3 93.0089 85.07 93.0089 86.555ZM87.9159 87.193H89.8409C90.4899 87.193 90.8529 86.995 90.8529 86.632C90.8529 86.28 90.4899 86.082 89.8409 86.082H87.9159V87.193ZM87.9159 90.229H90.0609C90.6989 90.229 91.0619 90.009 91.0619 89.602C91.0619 89.195 90.6989 88.964 90.0609 88.964H87.9159V90.229Z" fill="white"/>
<path d="M110.66 54.3H117.348V56.082H112.662V57.27H116.732V59.041H112.662V60.229H117.348V62H110.66V54.3ZM126.104 62H123.64L121.946 59.745L120.318 62H117.865L120.692 58.084L117.865 54.3H120.318L122.012 56.566L123.64 54.3H126.104L123.255 58.216L126.104 62ZM126.827 54.3H128.829V62H126.827V54.3ZM137.131 54.3V56.082H134.37V62.011H132.357V56.082H129.607V54.3H137.131ZM141.902 58.15C141.902 55.598 143.365 54.135 145.917 54.135C147.919 54.135 149.239 55.026 149.734 56.632L147.666 57.259C147.402 56.401 146.764 55.906 145.917 55.906C144.729 55.906 144.058 56.72 144.058 58.15C144.058 59.591 144.729 60.405 145.917 60.405C146.885 60.405 147.479 59.91 147.611 59.03H145.675V57.809H149.734V62H148.513V61.263C147.919 61.879 147.006 62.176 145.917 62.176C143.365 62.176 141.902 60.713 141.902 58.15ZM156.125 54.3L158.71 62H156.587L156.026 60.328H153.001L152.429 62H150.317L152.891 54.3H156.125ZM153.584 58.546H155.432L154.607 56.082H154.409L153.584 58.546ZM159.44 54.3H162.201L163.642 58.975L165.072 54.3H167.844V62H165.831V57.897L164.566 62H162.707L161.442 57.897V62H159.44V54.3ZM169.173 54.3H175.861V56.082H171.175V57.27H175.245V59.041H171.175V60.229H175.861V62H169.173V54.3Z" fill="white"/>
<path d="M110.66 79.3H117.348V81.082H112.662V82.809H116.732V84.591H112.662V87H110.66V79.3ZM118.276 87V79.3H120.278V85.229H124.854V87H118.276ZM129.331 87.176C126.889 87.176 125.316 85.592 125.316 83.161C125.316 80.719 126.889 79.135 129.331 79.135C131.773 79.135 133.357 80.719 133.357 83.161C133.357 85.592 131.773 87.176 129.331 87.176ZM127.472 83.161C127.472 84.525 128.198 85.405 129.331 85.405C130.464 85.405 131.19 84.525 131.19 83.161C131.19 81.786 130.464 80.906 129.331 80.906C128.198 80.906 127.472 81.786 127.472 83.161ZM138.064 87.176C135.622 87.176 134.049 85.592 134.049 83.161C134.049 80.719 135.622 79.135 138.064 79.135C140.506 79.135 142.09 80.719 142.09 83.161C142.09 85.592 140.506 87.176 138.064 87.176ZM136.205 83.161C136.205 84.525 136.931 85.405 138.064 85.405C139.197 85.405 139.923 84.525 139.923 83.161C139.923 81.786 139.197 80.906 138.064 80.906C136.931 80.906 136.205 81.786 136.205 83.161ZM143.101 87V79.3H146.929C149.14 79.3 150.405 80.455 150.405 81.951C150.405 82.952 149.833 83.799 148.788 84.25L150.361 87H148.073L146.687 84.591H145.103V87H143.101ZM147.248 82.809C147.908 82.809 148.249 82.325 148.249 81.951C148.249 81.577 147.908 81.082 147.248 81.082H145.103V82.809H147.248ZM110.66 98V90.3H112.662V96.229H117.238V98H110.66ZM118.018 90.3H124.706V92.082H120.02V93.27H124.09V95.041H120.02V96.229H124.706V98H118.018V90.3ZM131.031 90.3L133.616 98H131.493L130.932 96.328H127.907L127.335 98H125.223L127.797 90.3H131.031ZM128.49 94.546H130.338L129.513 92.082H129.315L128.49 94.546ZM141.651 94.15V94.161C141.651 96.592 139.968 98.011 137.526 98.011H134.347V90.3H137.526C139.968 90.3 141.651 91.719 141.651 94.15ZM136.349 96.229H137.526C138.659 96.229 139.495 95.47 139.495 94.161C139.495 92.841 138.659 92.082 137.526 92.082H136.349V96.229ZM142.65 90.3H149.338V92.082H144.652V93.27H148.722V95.041H144.652V96.229H149.338V98H142.65V90.3ZM150.46 98V90.3H154.288C156.499 90.3 157.764 91.455 157.764 92.951C157.764 93.952 157.192 94.799 156.147 95.25L157.72 98H155.432L154.046 95.591H152.462V98H150.46ZM154.607 93.809C155.267 93.809 155.608 93.325 155.608 92.951C155.608 92.577 155.267 92.082 154.607 92.082H152.462V93.809H154.607ZM165.859 92.555C165.859 93.303 165.419 93.776 164.77 94.051C165.54 94.326 166.068 94.832 166.068 95.69C166.068 97.219 164.803 98 162.592 98H158.764V90.3H162.372C164.583 90.3 165.859 91.07 165.859 92.555ZM160.766 93.193H162.691C163.34 93.193 163.703 92.995 163.703 92.632C163.703 92.28 163.34 92.082 162.691 92.082H160.766V93.193ZM160.766 96.229H162.911C163.549 96.229 163.912 96.009 163.912 95.602C163.912 95.195 163.549 94.964 162.911 94.964H160.766V96.229ZM170.806 98.176C168.364 98.176 166.791 96.592 166.791 94.161C166.791 91.719 168.364 90.135 170.806 90.135C173.248 90.135 174.832 91.719 174.832 94.161C174.832 96.592 173.248 98.176 170.806 98.176ZM168.947 94.161C168.947 95.525 169.673 96.405 170.806 96.405C171.939 96.405 172.665 95.525 172.665 94.161C172.665 92.786 171.939 91.906 170.806 91.906C169.673 91.906 168.947 92.786 168.947 94.161ZM180.789 90.3L183.374 98H181.251L180.69 96.328H177.665L177.093 98H174.981L177.555 90.3H180.789ZM178.248 94.546H180.096L179.271 92.082H179.073L178.248 94.546ZM184.104 98V90.3H187.932C190.143 90.3 191.408 91.455 191.408 92.951C191.408 93.952 190.836 94.799 189.791 95.25L191.364 98H189.076L187.69 95.591H186.106V98H184.104ZM188.251 93.809C188.911 93.809 189.252 93.325 189.252 92.951C189.252 92.577 188.911 92.082 188.251 92.082H186.106V93.809H188.251ZM199.712 94.15V94.161C199.712 96.592 198.029 98.011 195.587 98.011H192.408V90.3H195.587C198.029 90.3 199.712 91.719 199.712 94.15ZM194.41 96.229H195.587C196.72 96.229 197.556 95.47 197.556 94.161C197.556 92.841 196.72 92.082 195.587 92.082H194.41V96.229Z" fill="white"/>
</svg>
