<svg width="400" height="214" viewBox="0 0 400 214" fill="none" xmlns="http://www.w3.org/2000/svg">
<rect x="0.5" y="0.5" width="399" height="213" stroke="white"/>
<path d="M45.16 56V30.8H57.688C64.924 30.8 69.064 34.58 69.064 39.476C69.064 44.372 64.924 48.116 57.688 48.116H51.712V56H45.16ZM58.732 42.284C60.892 42.284 62.008 40.7 62.008 39.476C62.008 38.252 60.892 36.632 58.732 36.632H51.712V42.284H58.732ZM71.9842 56V30.8H78.5362V50.204H93.5122V56H71.9842ZM113.094 30.8L121.554 56H114.606L112.77 50.528H102.87L100.998 56H94.0863L102.51 30.8H113.094ZM104.778 44.696H110.826L108.126 36.632H107.478L104.778 44.696ZM122.129 43.4C122.129 35.048 126.917 30.26 135.269 30.26C141.821 30.26 146.141 33.176 147.761 38.432L140.993 40.484C140.129 37.676 138.041 36.056 135.269 36.056C131.381 36.056 129.185 38.72 129.185 43.4C129.185 48.116 131.381 50.78 135.269 50.78C138.041 50.78 140.129 49.16 140.993 46.352L147.761 48.404C146.141 53.66 141.821 56.576 135.269 56.576C126.917 56.576 122.129 51.788 122.129 43.4ZM150.805 30.8H172.693V36.632H157.357V40.52H170.677V46.316H157.357V50.204H172.693V56H150.805V30.8ZM176.363 30.8H182.915V40.52H193.067V30.8H199.655V56H193.067V46.316H182.915V56H176.363V30.8ZM216.092 56.576C208.1 56.576 202.952 51.392 202.952 43.436C202.952 35.444 208.1 30.26 216.092 30.26C224.084 30.26 229.268 35.444 229.268 43.436C229.268 51.392 224.084 56.576 216.092 56.576ZM210.008 43.436C210.008 47.9 212.384 50.78 216.092 50.78C219.8 50.78 222.176 47.9 222.176 43.436C222.176 38.936 219.8 36.056 216.092 36.056C212.384 36.056 210.008 38.936 210.008 43.436ZM232.578 56V30.8H239.13V50.204H254.106V56H232.578ZM280.564 43.4V43.436C280.564 51.392 275.056 56.036 267.064 56.036H256.66V30.8H267.064C275.056 30.8 280.564 35.444 280.564 43.4ZM263.212 50.204H267.064C270.772 50.204 273.508 47.72 273.508 43.436C273.508 39.116 270.772 36.632 267.064 36.632H263.212V50.204ZM283.836 30.8H305.724V36.632H290.388V40.52H303.708V46.316H290.388V50.204H305.724V56H283.836V30.8ZM309.394 56V30.8H321.922C329.158 30.8 333.298 34.58 333.298 39.476C333.298 42.752 331.426 45.524 328.006 47L333.154 56H325.666L321.13 48.116H315.946V56H309.394ZM322.966 42.284C325.126 42.284 326.242 40.7 326.242 39.476C326.242 38.252 325.126 36.632 322.966 36.632H315.946V42.284H322.966Z" fill="white"/>
<rect x="129.5" y="111.5" width="67" height="19" rx="4.5" stroke="white"/>
<path d="M147.048 116.135C148.885 116.135 150.392 116.949 150.777 118.214L148.698 118.83C148.555 118.324 148.115 117.906 147.048 117.906C146.267 117.906 145.651 118.049 145.651 118.555C145.651 120.029 150.953 118.159 150.953 121.657C150.953 123.186 149.468 124.176 147.125 124.176C145.277 124.176 143.671 123.362 143.286 122.097L145.354 121.481C145.508 121.987 146.069 122.405 147.125 122.405C148.17 122.405 148.786 122.064 148.786 121.657C148.786 120.326 143.539 122.097 143.539 118.654C143.539 117.026 144.947 116.135 147.048 116.135ZM151.974 124V116.3H155.802C158.013 116.3 159.278 117.455 159.278 118.951C159.278 120.447 158.013 121.591 155.802 121.591H153.976V124H151.974ZM156.121 119.809C156.781 119.809 157.122 119.325 157.122 118.951C157.122 118.577 156.781 118.082 156.121 118.082H153.976V119.809H156.121ZM164.697 116.3L167.282 124H165.159L164.598 122.328H161.573L161.001 124H158.889L161.463 116.3H164.697ZM162.156 120.546H164.004L163.179 118.082H162.981L162.156 120.546ZM167.458 120.15C167.458 117.598 168.921 116.135 171.473 116.135C173.475 116.135 174.795 117.026 175.29 118.632L173.222 119.259C172.958 118.401 172.32 117.906 171.473 117.906C170.285 117.906 169.614 118.72 169.614 120.15C169.614 121.591 170.285 122.405 171.473 122.405C172.32 122.405 172.958 121.91 173.222 121.052L175.29 121.679C174.795 123.285 173.475 124.176 171.473 124.176C168.921 124.176 167.458 122.713 167.458 120.15ZM176.22 116.3H182.908V118.082H178.222V119.27H182.292V121.041H178.222V122.229H182.908V124H176.22V116.3Z" fill="white"/>
<path d="M211.048 116.135C212.885 116.135 214.392 116.949 214.777 118.214L212.698 118.83C212.555 118.324 212.115 117.906 211.048 117.906C210.267 117.906 209.651 118.049 209.651 118.555C209.651 120.029 214.953 118.159 214.953 121.657C214.953 123.186 213.468 124.176 211.125 124.176C209.277 124.176 207.671 123.362 207.286 122.097L209.354 121.481C209.508 121.987 210.069 122.405 211.125 122.405C212.17 122.405 212.786 122.064 212.786 121.657C212.786 120.326 207.539 122.097 207.539 118.654C207.539 117.026 208.947 116.135 211.048 116.135ZM222.948 116.3V118.082H220.187V124.011H218.174V118.082H215.424V116.3H222.948ZM227.913 116.3L230.498 124H228.375L227.814 122.328H224.789L224.217 124H222.105L224.679 116.3H227.913ZM225.372 120.546H227.22L226.395 118.082H226.197L225.372 120.546ZM231.228 124V116.3H235.056C237.267 116.3 238.532 117.455 238.532 118.951C238.532 119.952 237.96 120.799 236.915 121.25L238.488 124H236.2L234.814 121.591H233.23V124H231.228ZM235.375 119.809C236.035 119.809 236.376 119.325 236.376 118.951C236.376 118.577 236.035 118.082 235.375 118.082H233.23V119.809H235.375ZM246.506 116.3V118.082H243.745V124.011H241.732V118.082H238.982V116.3H246.506ZM251.277 120.15C251.277 117.598 252.74 116.135 255.292 116.135C257.294 116.135 258.614 117.026 259.109 118.632L257.041 119.259C256.777 118.401 256.139 117.906 255.292 117.906C254.104 117.906 253.433 118.72 253.433 120.15C253.433 121.591 254.104 122.405 255.292 122.405C256.26 122.405 256.854 121.91 256.986 121.03H255.05V119.809H259.109V124H257.888V123.263C257.294 123.879 256.381 124.176 255.292 124.176C252.74 124.176 251.277 122.713 251.277 120.15ZM265.5 116.3L268.085 124H265.962L265.401 122.328H262.376L261.804 124H259.692L262.266 116.3H265.5ZM262.959 120.546H264.807L263.982 118.082H263.784L262.959 120.546ZM268.815 116.3H271.576L273.017 120.975L274.447 116.3H277.219V124H275.206V119.897L273.941 124H272.082L270.817 119.897V124H268.815V116.3ZM278.548 116.3H285.236V118.082H280.55V119.27H284.62V121.041H280.55V122.229H285.236V124H278.548V116.3Z" fill="white"/>
<rect x="129.5" y="169.5" width="67" height="19" rx="4.5" stroke="white"/>
<path d="M138.66 174.3H145.348V176.082H140.662V177.27H144.732V179.041H140.662V180.229H145.348V182H138.66V174.3ZM149.858 174.135C151.695 174.135 153.202 174.949 153.587 176.214L151.508 176.83C151.365 176.324 150.925 175.906 149.858 175.906C149.077 175.906 148.461 176.049 148.461 176.555C148.461 178.029 153.763 176.159 153.763 179.657C153.763 181.186 152.278 182.176 149.935 182.176C148.087 182.176 146.481 181.362 146.096 180.097L148.164 179.481C148.318 179.987 148.879 180.405 149.935 180.405C150.98 180.405 151.596 180.064 151.596 179.657C151.596 178.326 146.349 180.097 146.349 176.654C146.349 175.026 147.757 174.135 149.858 174.135ZM154.487 178.15C154.487 175.598 155.95 174.135 158.502 174.135C160.504 174.135 161.824 175.026 162.319 176.632L160.251 177.259C159.987 176.401 159.349 175.906 158.502 175.906C157.314 175.906 156.643 176.72 156.643 178.15C156.643 179.591 157.314 180.405 158.502 180.405C159.349 180.405 159.987 179.91 160.251 179.052L162.319 179.679C161.824 181.285 160.504 182.176 158.502 182.176C155.95 182.176 154.487 180.713 154.487 178.15ZM168.377 174.3L170.962 182H168.839L168.278 180.328H165.253L164.681 182H162.569L165.143 174.3H168.377ZM165.836 178.546H167.684L166.859 176.082H166.661L165.836 178.546ZM171.692 182V174.3H175.52C177.731 174.3 178.996 175.455 178.996 176.951C178.996 178.447 177.731 179.591 175.52 179.591H173.694V182H171.692ZM175.839 177.809C176.499 177.809 176.84 177.325 176.84 176.951C176.84 176.577 176.499 176.082 175.839 176.082H173.694V177.809H175.839ZM179.889 174.3H186.577V176.082H181.891V177.27H185.961V179.041H181.891V180.229H186.577V182H179.889V174.3Z" fill="white"/>
<path d="M207.66 174.3H214.348V176.082H209.662V177.27H213.732V179.041H209.662V180.229H214.348V182H207.66V174.3ZM223.104 182H220.64L218.946 179.745L217.318 182H214.865L217.692 178.084L214.865 174.3H217.318L219.012 176.566L220.64 174.3H223.104L220.255 178.216L223.104 182ZM223.827 174.3H225.829V182H223.827V174.3ZM234.131 174.3V176.082H231.37V182.011H229.357V176.082H226.607V174.3H234.131ZM238.902 178.15C238.902 175.598 240.365 174.135 242.917 174.135C244.919 174.135 246.239 175.026 246.734 176.632L244.666 177.259C244.402 176.401 243.764 175.906 242.917 175.906C241.729 175.906 241.058 176.72 241.058 178.15C241.058 179.591 241.729 180.405 242.917 180.405C243.885 180.405 244.479 179.91 244.611 179.03H242.675V177.809H246.734V182H245.513V181.263C244.919 181.879 244.006 182.176 242.917 182.176C240.365 182.176 238.902 180.713 238.902 178.15ZM253.125 174.3L255.71 182H253.587L253.026 180.328H250.001L249.429 182H247.317L249.891 174.3H253.125ZM250.584 178.546H252.432L251.607 176.082H251.409L250.584 178.546ZM256.44 174.3H259.201L260.642 178.975L262.072 174.3H264.844V182H262.831V177.897L261.566 182H259.707L258.442 177.897V182H256.44V174.3ZM266.173 174.3H272.861V176.082H268.175V177.27H272.245V179.041H268.175V180.229H272.861V182H266.173V174.3Z" fill="white"/>
<path d="M207.66 153V145.3H209.662V151.229H214.238V153H207.66ZM215.018 145.3H221.706V147.082H217.02V148.27H221.09V150.041H217.02V151.229H221.706V153H215.018V145.3ZM228.031 145.3L230.616 153H228.493L227.932 151.328H224.907L224.335 153H222.223L224.797 145.3H228.031ZM225.49 149.546H227.338L226.513 147.082H226.315L225.49 149.546ZM238.651 149.15V149.161C238.651 151.592 236.968 153.011 234.526 153.011H231.347V145.3H234.526C236.968 145.3 238.651 146.719 238.651 149.15ZM233.349 151.229H234.526C235.659 151.229 236.495 150.47 236.495 149.161C236.495 147.841 235.659 147.082 234.526 147.082H233.349V151.229ZM239.65 145.3H246.338V147.082H241.652V148.27H245.722V150.041H241.652V151.229H246.338V153H239.65V145.3ZM247.46 153V145.3H251.288C253.499 145.3 254.764 146.455 254.764 147.951C254.764 148.952 254.192 149.799 253.147 150.25L254.72 153H252.432L251.046 150.591H249.462V153H247.46ZM251.607 148.809C252.267 148.809 252.608 148.325 252.608 147.951C252.608 147.577 252.267 147.082 251.607 147.082H249.462V148.809H251.607ZM262.859 147.555C262.859 148.303 262.419 148.776 261.77 149.051C262.54 149.326 263.068 149.832 263.068 150.69C263.068 152.219 261.803 153 259.592 153H255.764V145.3H259.372C261.583 145.3 262.859 146.07 262.859 147.555ZM257.766 148.193H259.691C260.34 148.193 260.703 147.995 260.703 147.632C260.703 147.28 260.34 147.082 259.691 147.082H257.766V148.193ZM257.766 151.229H259.911C260.549 151.229 260.912 151.009 260.912 150.602C260.912 150.195 260.549 149.964 259.911 149.964H257.766V151.229ZM267.806 153.176C265.364 153.176 263.791 151.592 263.791 149.161C263.791 146.719 265.364 145.135 267.806 145.135C270.248 145.135 271.832 146.719 271.832 149.161C271.832 151.592 270.248 153.176 267.806 153.176ZM265.947 149.161C265.947 150.525 266.673 151.405 267.806 151.405C268.939 151.405 269.665 150.525 269.665 149.161C269.665 147.786 268.939 146.906 267.806 146.906C266.673 146.906 265.947 147.786 265.947 149.161ZM277.789 145.3L280.374 153H278.251L277.69 151.328H274.665L274.093 153H271.981L274.555 145.3H277.789ZM275.248 149.546H277.096L276.271 147.082H276.073L275.248 149.546ZM281.104 153V145.3H284.932C287.143 145.3 288.408 146.455 288.408 147.951C288.408 148.952 287.836 149.799 286.791 150.25L288.364 153H286.076L284.69 150.591H283.106V153H281.104ZM285.251 148.809C285.911 148.809 286.252 148.325 286.252 147.951C286.252 147.577 285.911 147.082 285.251 147.082H283.106V148.809H285.251ZM296.712 149.15V149.161C296.712 151.592 295.029 153.011 292.587 153.011H289.408V145.3H292.587C295.029 145.3 296.712 146.719 296.712 149.15ZM291.41 151.229H292.587C293.72 151.229 294.556 150.47 294.556 149.161C294.556 147.841 293.72 147.082 292.587 147.082H291.41V151.229Z" fill="white"/>
<rect x="129.5" y="140.5" width="67" height="19" rx="4.5" stroke="white"/>
<path d="M158.634 145.3V147.082H155.873V153.011H153.86V147.082H151.11V145.3H158.634ZM163.598 145.3L166.183 153H164.06L163.499 151.328H160.474L159.902 153H157.79L160.364 145.3H163.598ZM161.057 149.546H162.905L162.08 147.082H161.882L161.057 149.546ZM174.009 147.555C174.009 148.303 173.569 148.776 172.92 149.051C173.69 149.326 174.218 149.832 174.218 150.69C174.218 152.219 172.953 153 170.742 153H166.914V145.3H170.522C172.733 145.3 174.009 146.07 174.009 147.555ZM168.916 148.193H170.841C171.49 148.193 171.853 147.995 171.853 147.632C171.853 147.28 171.49 147.082 170.841 147.082H168.916V148.193ZM168.916 151.229H171.061C171.699 151.229 172.062 151.009 172.062 150.602C172.062 150.195 171.699 149.964 171.061 149.964H168.916V151.229Z" fill="white"/>
</svg>
