<svg width="400" height="122" viewBox="0 0 400 122" fill="none" xmlns="http://www.w3.org/2000/svg">
<rect x="0.5" y="0.5" width="399" height="121" fill="#1E1D2C"/>
<rect x="0.5" y="0.5" width="399" height="121" stroke="white"/>
<path d="M103.66 90V82.3H107.488C109.699 82.3 110.964 83.455 110.964 84.951C110.964 86.447 109.699 87.591 107.488 87.591H105.662V90H103.66ZM107.807 85.809C108.467 85.809 108.808 85.325 108.808 84.951C108.808 84.577 108.467 84.082 107.807 84.082H105.662V85.809H107.807ZM111.856 90V82.3H115.684C117.895 82.3 119.16 83.455 119.16 84.951C119.16 85.952 118.588 86.799 117.543 87.25L119.116 90H116.828L115.442 87.591H113.858V90H111.856ZM116.003 85.809C116.663 85.809 117.004 85.325 117.004 84.951C117.004 84.577 116.663 84.082 116.003 84.082H113.858V85.809H116.003ZM120.16 82.3H126.848V84.082H122.162V85.27H126.232V87.041H122.162V88.229H126.848V90H120.16V82.3ZM131.358 82.135C133.195 82.135 134.702 82.949 135.087 84.214L133.008 84.83C132.865 84.324 132.425 83.906 131.358 83.906C130.577 83.906 129.961 84.049 129.961 84.555C129.961 86.029 135.263 84.159 135.263 87.657C135.263 89.186 133.778 90.176 131.435 90.176C129.587 90.176 127.981 89.362 127.596 88.097L129.664 87.481C129.818 87.987 130.379 88.405 131.435 88.405C132.48 88.405 133.096 88.064 133.096 87.657C133.096 86.326 127.849 88.097 127.849 84.654C127.849 83.026 129.257 82.135 131.358 82.135ZM139.672 82.135C141.509 82.135 143.016 82.949 143.401 84.214L141.322 84.83C141.179 84.324 140.739 83.906 139.672 83.906C138.891 83.906 138.275 84.049 138.275 84.555C138.275 86.029 143.577 84.159 143.577 87.657C143.577 89.186 142.092 90.176 139.749 90.176C137.901 90.176 136.295 89.362 135.91 88.097L137.978 87.481C138.132 87.987 138.693 88.405 139.749 88.405C140.794 88.405 141.41 88.064 141.41 87.657C141.41 86.326 136.163 88.097 136.163 84.654C136.163 83.026 137.571 82.135 139.672 82.135Z" fill="white"/>
<path d="M237.634 82.3V84.082H234.873V90.011H232.86V84.082H230.11V82.3H237.634ZM242.112 90.176C239.67 90.176 238.097 88.592 238.097 86.161C238.097 83.719 239.67 82.135 242.112 82.135C244.554 82.135 246.138 83.719 246.138 86.161C246.138 88.592 244.554 90.176 242.112 90.176ZM240.253 86.161C240.253 87.525 240.979 88.405 242.112 88.405C243.245 88.405 243.971 87.525 243.971 86.161C243.971 84.786 243.245 83.906 242.112 83.906C240.979 83.906 240.253 84.786 240.253 86.161ZM251.435 90V82.3H255.263C257.474 82.3 258.739 83.455 258.739 84.951C258.739 85.952 258.167 86.799 257.122 87.25L258.695 90H256.407L255.021 87.591H253.437V90H251.435ZM255.582 85.809C256.242 85.809 256.583 85.325 256.583 84.951C256.583 84.577 256.242 84.082 255.582 84.082H253.437V85.809H255.582ZM259.739 82.3H266.427V84.082H261.741V85.27H265.811V87.041H261.741V88.229H266.427V90H259.739V82.3ZM270.937 82.135C272.774 82.135 274.281 82.949 274.666 84.214L272.587 84.83C272.444 84.324 272.004 83.906 270.937 83.906C270.156 83.906 269.54 84.049 269.54 84.555C269.54 86.029 274.842 84.159 274.842 87.657C274.842 89.186 273.357 90.176 271.014 90.176C269.166 90.176 267.56 89.362 267.175 88.097L269.243 87.481C269.397 87.987 269.958 88.405 271.014 88.405C272.059 88.405 272.675 88.064 272.675 87.657C272.675 86.326 267.428 88.097 267.428 84.654C267.428 83.026 268.836 82.135 270.937 82.135ZM275.731 82.3H277.733V86.48C277.733 87.69 278.327 88.405 279.273 88.405C280.23 88.405 280.813 87.69 280.813 86.48V82.3H282.826V86.48C282.826 88.834 281.506 90.176 279.273 90.176C277.04 90.176 275.731 88.834 275.731 86.48V82.3ZM284.027 82.3H286.788L288.229 86.975L289.659 82.3H292.431V90H290.418V85.897L289.153 90H287.294L286.029 85.897V90H284.027V82.3ZM293.76 82.3H300.448V84.082H295.762V85.27H299.832V87.041H295.762V88.229H300.448V90H293.76V82.3Z" fill="white"/>
<rect x="153.5" y="77.5" width="67" height="19" rx="4.5" stroke="white"/>
<path d="M171.048 82.135C172.885 82.135 174.392 82.949 174.777 84.214L172.698 84.83C172.555 84.324 172.115 83.906 171.048 83.906C170.267 83.906 169.651 84.049 169.651 84.555C169.651 86.029 174.953 84.159 174.953 87.657C174.953 89.186 173.468 90.176 171.125 90.176C169.277 90.176 167.671 89.362 167.286 88.097L169.354 87.481C169.508 87.987 170.069 88.405 171.125 88.405C172.17 88.405 172.786 88.064 172.786 87.657C172.786 86.326 167.539 88.097 167.539 84.654C167.539 83.026 168.947 82.135 171.048 82.135ZM175.974 90V82.3H179.802C182.013 82.3 183.278 83.455 183.278 84.951C183.278 86.447 182.013 87.591 179.802 87.591H177.976V90H175.974ZM180.121 85.809C180.781 85.809 181.122 85.325 181.122 84.951C181.122 84.577 180.781 84.082 180.121 84.082H177.976V85.809H180.121ZM188.697 82.3L191.282 90H189.159L188.598 88.328H185.573L185.001 90H182.889L185.463 82.3H188.697ZM186.156 86.546H188.004L187.179 84.082H186.981L186.156 86.546ZM191.458 86.15C191.458 83.598 192.921 82.135 195.473 82.135C197.475 82.135 198.795 83.026 199.29 84.632L197.222 85.259C196.958 84.401 196.32 83.906 195.473 83.906C194.285 83.906 193.614 84.72 193.614 86.15C193.614 87.591 194.285 88.405 195.473 88.405C196.32 88.405 196.958 87.91 197.222 87.052L199.29 87.679C198.795 89.285 197.475 90.176 195.473 90.176C192.921 90.176 191.458 88.713 191.458 86.15ZM200.22 82.3H206.908V84.082H202.222V85.27H206.292V87.041H202.222V88.229H206.908V90H200.22V82.3Z" fill="white"/>
<path d="M117.16 57V31.8H129.688C136.924 31.8 141.064 35.58 141.064 40.476C141.064 45.372 136.924 49.116 129.688 49.116H123.712V57H117.16ZM130.732 43.284C132.892 43.284 134.008 41.7 134.008 40.476C134.008 39.252 132.892 37.632 130.732 37.632H123.712V43.284H130.732ZM158.797 31.8L167.257 57H160.309L158.473 51.528H148.573L146.701 57H139.789L148.213 31.8H158.797ZM150.481 45.696H156.529L153.829 37.632H153.181L150.481 45.696ZM168.197 31.8H174.749V45.48C174.749 49.44 176.693 51.78 179.789 51.78C182.921 51.78 184.829 49.44 184.829 45.48V31.8H191.417V45.48C191.417 53.184 187.097 57.576 179.789 57.576C172.481 57.576 168.197 53.184 168.197 45.48V31.8ZM206.436 31.26C212.448 31.26 217.38 33.924 218.64 38.064L211.836 40.08C211.367 38.424 209.928 37.056 206.436 37.056C203.88 37.056 201.864 37.524 201.864 39.18C201.864 44.004 219.216 37.884 219.216 49.332C219.216 54.336 214.355 57.576 206.688 57.576C200.64 57.576 195.384 54.912 194.124 50.772L200.892 48.756C201.396 50.412 203.232 51.78 206.688 51.78C210.108 51.78 212.124 50.664 212.124 49.332C212.124 44.976 194.952 50.772 194.952 39.504C194.952 34.176 199.56 31.26 206.436 31.26ZM222.558 31.8H244.446V37.632H229.11V41.52H242.43V47.316H229.11V51.204H244.446V57H222.558V31.8ZM272.021 44.4V44.436C272.021 52.392 266.513 57.036 258.521 57.036H248.117V31.8H258.521C266.513 31.8 272.021 36.444 272.021 44.4ZM254.669 51.204H258.521C262.229 51.204 264.965 48.72 264.965 44.436C264.965 40.116 262.229 37.632 258.521 37.632H254.669V51.204Z" fill="white"/>
</svg>
