<svg width="117" height="49" viewBox="0 0 117 49" fill="none" xmlns="http://www.w3.org/2000/svg">
<path d="M16.852 26.544C10.12 26.544 5.768 21.648 5.768 14.134C5.768 6.586 10.12 1.69 16.852 1.69C23.584 1.69 27.97 6.586 27.97 14.134C27.97 21.648 23.584 26.544 16.852 26.544ZM12.432 14.134C12.432 18.758 13.928 21.07 16.852 21.07C19.81 21.07 21.272 18.758 21.272 14.134C21.272 9.476 19.81 7.164 16.852 7.164C13.928 7.164 12.432 9.476 12.432 14.134ZM42.6176 26.544C35.8856 26.544 31.5336 21.648 31.5336 14.134C31.5336 6.586 35.8856 1.69 42.6176 1.69C49.3496 1.69 53.7356 6.586 53.7356 14.134C53.7356 21.648 49.3496 26.544 42.6176 26.544ZM38.1976 14.134C38.1976 18.758 39.6936 21.07 42.6176 21.07C45.5756 21.07 47.0376 18.758 47.0376 14.134C47.0376 9.476 45.5756 7.164 42.6176 7.164C39.6936 7.164 38.1976 9.476 38.1976 14.134ZM57.1633 8.694C57.1633 6.994 58.4553 5.702 60.1553 5.702C61.8553 5.702 63.1473 6.994 63.1473 8.694C63.1473 10.394 61.8553 11.72 60.1553 11.72C58.4553 11.72 57.1633 10.394 57.1633 8.694ZM60.1553 22.532C58.4553 22.532 57.1633 21.24 57.1633 19.54C57.1633 17.84 58.4553 16.514 60.1553 16.514C61.8553 16.514 63.1473 17.84 63.1473 19.54C63.1473 21.24 61.8553 22.532 60.1553 22.532ZM77.6801 26.544C70.9481 26.544 66.5961 21.648 66.5961 14.134C66.5961 6.586 70.9481 1.69 77.6801 1.69C84.4121 1.69 88.7981 6.586 88.7981 14.134C88.7981 21.648 84.4121 26.544 77.6801 26.544ZM73.2601 14.134C73.2601 18.758 74.7561 21.07 77.6801 21.07C80.6381 21.07 82.1001 18.758 82.1001 14.134C82.1001 9.476 80.6381 7.164 77.6801 7.164C74.7561 7.164 73.2601 9.476 73.2601 14.134ZM103.446 26.544C96.7138 26.544 92.3618 21.648 92.3618 14.134C92.3618 6.586 96.7138 1.69 103.446 1.69C110.178 1.69 114.564 6.586 114.564 14.134C114.564 21.648 110.178 26.544 103.446 26.544ZM99.0258 14.134C99.0258 18.758 100.522 21.07 103.446 21.07C106.404 21.07 107.866 18.758 107.866 14.134C107.866 9.476 106.404 7.164 103.446 7.164C100.522 7.164 99.0258 9.476 99.0258 14.134Z" fill="white"/>
<path d="M0 47L116 47" stroke="white" stroke-width="3"/>
</svg>
